<svg xmlns="http://www.w3.org/2000/svg" fill="none" viewBox="0 0 57 57">
  <path fill="#112B49" d="M35.675 39.748h6.153l-9.821-25.487h-6.802l-9.82 25.487h6.152l1.605-4.317h9.279l-1.68-4.777h-6.11l3.975-10.967 7.07 20.061zm20.287-18.87a1.478 1.478 0 00-1.822-1.03 1.48 1.48 0 00-1.03 1.822c.617 2.224.93 4.522.93 6.83 0 14.083-11.457 25.54-25.54 25.54-14.083 0-25.54-11.457-25.54-25.54 0-14.083 11.457-25.54 25.54-25.54 5.966 0 11.738 2.12 16.294 5.891a3.562 3.562 0 102.2-2.017C41.864 2.462 35.294 0 28.5 0 12.785 0 0 12.785 0 28.5S12.785 57 28.5 57 57 44.215 57 28.5c0-2.576-.349-5.14-1.038-7.622z"/>
</svg>
