<svg width="828" height="216" viewBox="0 0 828 216" fill="none" xmlns="http://www.w3.org/2000/svg">
<path d="M808.315 71.2793C808.315 71.2793 808.315 71.2772 808.313 71.2793C789.447 61.6824 768.097 57.1052 746.913 57.9907C744.338 74.6062 739.674 90.8717 733.066 106.288C737.517 109.136 742.087 111.815 746.768 114.316C753.415 100.308 758.456 85.4323 761.697 70.221C767.65 70.5688 773.616 71.6272 779.19 73.297C773.509 89.4359 765.669 104.938 756.144 119.013C770.251 125.631 785.251 130.664 800.911 133.883C812.249 118.547 821.4 101.622 828 83.6845C821.865 78.9662 815.278 74.8044 808.315 71.2793ZM787.317 76.0968C787.329 76.1474 787.344 76.1959 787.359 76.2465C787.314 76.2275 787.27 76.2085 787.226 76.1895C787.255 76.16 787.287 76.1284 787.317 76.0968Z" fill="#FF5721"/>
<path d="M784.231 51.824C795.023 54.3202 805.396 58.2374 815.092 63.4639C816.559 61.3471 817.859 59.106 818.97 56.7595C814.517 53.7573 809.733 51.2105 804.686 49.1823C810.568 34.1565 811.307 15.574 806.568 0C803.832 2.75343 801.306 5.71137 799.011 8.85273C798.526 21.8862 794.804 34.0911 788.63 44.6874C782.931 43.7429 777.064 43.4456 771.267 43.7977C770.649 45.6867 769.916 47.5231 769.073 49.2982C774.225 49.8338 779.279 50.6792 784.231 51.824Z" fill="#FF5721"/>
<path d="M713.077 165.185C712.141 165.921 711.197 166.646 710.247 167.363C721.612 155.468 731.511 142.221 739.725 127.828C735.203 125.45 730.779 122.903 726.468 120.196C717.886 136.624 707.147 151.7 694.505 165.153C707.208 175.357 721.031 183.978 735.881 190.889C756.694 179.397 775.353 164.261 790.866 146.408C775.528 143.103 760.837 138.051 747.011 131.475C737.062 144.018 725.663 155.337 713.077 165.185Z" fill="#FF5721"/>
<path d="M689.765 180.957C687.643 179.346 685.554 177.698 683.5 176.005C665.174 192.77 643.697 206.151 620.51 215.162C654.285 218.164 688.49 212.535 718.763 199.312C708.553 194.007 698.884 187.872 689.765 180.957Z" fill="#FF5721"/>
<g clip-path="url(#clip0_363_24)">
<path d="M70.0146 102.54C71.2538 102.54 71.9297 101.611 71.9297 100.683C71.9297 85.5875 58.3098 72 36.9224 72C15.535 72 0 87.3316 0 108.003C0 128.674 16.2109 144 36.9224 144C59.4363 144 71.9297 129.951 71.9297 115.897C71.9297 114.737 70.8032 114.271 69.902 114.271H53.8038C52.5646 114.271 51.8887 114.737 51.5508 116.127C49.7484 122.513 44.6845 126.345 36.917 126.345C27.7977 126.345 20.2555 119.379 20.2555 107.997C20.2555 96.6153 28.023 89.6498 36.917 89.6498C44.9098 89.6498 49.9737 93.9483 51.5508 100.683C51.8887 101.96 52.452 102.54 53.4658 102.54H70.0146Z" fill="#FF5721"/>
<path d="M156.154 74.5544C156.154 73.8568 155.479 73.1592 154.803 73.1592H137.24C136.564 73.1592 135.888 73.8568 135.888 74.5544V101.263H104.148V74.5544C104.148 73.8568 103.472 73.1592 102.796 73.1592H85.2333C84.5574 73.1592 83.8815 73.8568 83.8815 74.5544V141.446C83.8815 142.143 84.5574 142.841 85.2333 142.841H102.796C103.472 142.841 104.148 142.143 104.148 141.446V118.918H135.888V141.446C135.888 142.143 136.564 142.841 137.24 142.841H154.803C155.479 142.841 156.154 142.143 156.154 141.446V74.5544Z" fill="#FF5721"/>
<path d="M191.376 74.5544C191.376 73.8568 190.7 73.1592 190.024 73.1592H172.462C171.786 73.1592 171.11 73.8568 171.11 74.5544V141.446C171.11 142.143 171.786 142.841 172.462 142.841H190.024C190.7 142.841 191.376 142.143 191.376 141.446V74.5544Z" fill="#FF5721"/>
<path d="M226.002 74.5544C226.002 73.8568 225.327 73.1592 224.651 73.1592H207.088C206.412 73.1592 205.736 73.8568 205.736 74.5544V141.446C205.736 142.143 206.412 142.841 207.088 142.841H255.715C256.391 142.841 257.292 141.913 257.292 141.215V126.817C257.292 126.119 256.391 125.191 255.715 125.191H225.997V74.5544H226.002Z" fill="#FF5721"/>
<path d="M289.189 74.5544C289.189 73.8568 288.513 73.1592 287.837 73.1592H270.274C269.598 73.1592 268.922 73.8568 268.922 74.5544V141.446C268.922 142.143 269.598 142.841 270.274 142.841H287.837C288.513 142.841 289.189 142.143 289.189 141.446V74.5544Z" fill="#FF5721"/>
<path d="M352.552 142.841C353.227 142.841 353.903 142.143 353.903 141.446V126.463H364.712C380.923 126.463 393.304 116.594 393.304 100.104C393.304 83.6128 381.487 73.1592 364.712 73.1592H334.994C334.318 73.1592 333.642 73.8568 333.642 74.5544V141.446C333.642 142.143 334.318 142.841 334.994 142.841H352.557H352.552ZM362.679 90.8144C369.095 90.8144 372.925 94.764 372.925 100.452C372.925 106.141 368.988 109.972 362.679 109.972H353.898V90.8144H362.679Z" fill="#FF5721"/>
<path d="M425.039 74.5544C425.039 73.8568 424.363 73.1592 423.687 73.1592H406.124C405.448 73.1592 404.772 73.8568 404.772 74.5544V141.446C404.772 142.143 405.448 142.841 406.124 142.841H423.687C424.363 142.841 425.039 142.143 425.039 141.446V74.5544Z" fill="#FF5721"/>
<path d="M459.204 142.841C459.88 142.841 460.556 142.143 460.556 141.446V126.463H471.365C487.576 126.463 499.957 116.594 499.957 100.104C499.957 83.6128 488.139 73.1592 471.365 73.1592H441.647C440.971 73.1592 440.295 73.8568 440.295 74.5544V141.446C440.295 142.143 440.971 142.841 441.647 142.841H459.21H459.204ZM469.337 90.8144C475.753 90.8144 479.583 94.764 479.583 100.452C479.583 106.141 475.646 109.972 469.337 109.972H460.556V90.8144H469.337Z" fill="#FF5721"/>
<path d="M564.645 115.897C565.321 115.897 566.222 114.968 566.222 114.271V101.032C566.222 100.334 565.321 99.4059 564.645 99.4059H531.552V90.8144H568.024C568.7 90.8144 569.601 89.886 569.601 89.1884V74.7852C569.601 74.0876 568.7 73.1592 568.024 73.1592H512.643C511.967 73.1592 511.291 73.8568 511.291 74.5544V141.446C511.291 142.143 511.967 142.841 512.643 142.841H568.475C569.151 142.841 570.052 141.913 570.052 141.215V126.817C570.052 126.119 569.151 125.191 568.475 125.191H531.552V115.902H564.645V115.897Z" fill="#FF5721"/>
<path d="M583.827 141.446C583.827 142.143 584.503 142.841 585.179 142.841H602.742C603.418 142.841 604.093 142.143 604.093 141.446V123.678H613.213L624.585 142.025C624.923 142.605 625.599 142.836 626.162 142.836H646.874C647.662 142.836 648 142.487 648 142.025C648 141.564 647.775 141.215 647.212 140.281L637.084 124.139C635.845 122.164 634.38 120.077 634.38 120.077V119.846C642.26 115.897 647.437 108.813 647.437 98.9443C647.437 83.382 635.619 73.1645 618.958 73.1645H585.19C584.514 73.1645 583.838 73.8621 583.838 74.5597V141.451L583.827 141.446ZM617.145 90.8143C623.56 90.8143 627.165 94.1844 627.165 98.9443C627.165 103.704 623.566 107.187 617.145 107.187H604.088V90.8143H617.145Z" fill="#FF5721"/>
</g>
<defs>
<clipPath id="clip0_363_24">
<rect width="648" height="72" fill="white" transform="translate(0 72)"/>
</clipPath>
</defs>
</svg>
