<svg width="32" height="32" viewBox="0 0 32 32" fill="none" xmlns="http://www.w3.org/2000/svg">
    <g clip-path="url(#clip0)">
        <path d="M18.644 14.7706H21.4693C21.5349 14.7706 21.5978 14.7446 21.6442 14.6984C21.6907 14.6522 21.717 14.5894 21.7173 14.5239V12.0079C21.7173 11.9421 21.6912 11.879 21.6447 11.8325C21.5982 11.786 21.5351 11.7599 21.4693 11.7599H18.644C18.5786 11.7599 18.5158 11.7859 18.4696 11.8321C18.4233 11.8784 18.3973 11.9411 18.3973 12.0066V14.5239C18.3973 14.6599 18.508 14.7706 18.644 14.7706V14.7706ZM14.7053 7.53055H17.5293C17.5951 7.53055 17.6582 7.50443 17.7047 7.45792C17.7512 7.41141 17.7773 7.34833 17.7773 7.28255V4.76522C17.777 4.69968 17.7507 4.63694 17.7042 4.59072C17.6578 4.5445 17.5949 4.51855 17.5293 4.51855H14.7053C14.6399 4.51855 14.5772 4.54454 14.5309 4.5908C14.4847 4.63706 14.4587 4.6998 14.4587 4.76522V7.28255C14.4587 7.41855 14.568 7.52922 14.7053 7.52922V7.53055ZM14.7053 11.1506H17.5293C17.595 11.1502 17.6579 11.124 17.7043 11.0775C17.7507 11.0311 17.777 10.9682 17.7773 10.9026V8.38655C17.777 8.32101 17.7507 8.25827 17.7042 8.21205C17.6578 8.16583 17.5949 8.13989 17.5293 8.13989H14.7053C14.6399 8.13989 14.5772 8.16588 14.5309 8.21214C14.4847 8.25839 14.4587 8.32113 14.4587 8.38655V10.9026C14.4587 11.0386 14.568 11.1492 14.7053 11.1506ZM10.7987 11.1506H13.6253C13.6906 11.1499 13.753 11.1234 13.799 11.077C13.8449 11.0305 13.8707 10.9679 13.8707 10.9026V8.38655C13.8707 8.32113 13.8447 8.25839 13.7984 8.21214C13.7522 8.16588 13.6894 8.13989 13.624 8.13989H10.8C10.7346 8.13989 10.6718 8.16588 10.6256 8.21214C10.5793 8.25839 10.5533 8.32113 10.5533 8.38655V10.9026C10.5533 11.0386 10.664 11.1492 10.8 11.1506H10.7987ZM6.848 11.1506H9.67333C9.73888 11.1502 9.80161 11.1239 9.84783 11.0774C9.89406 11.031 9.92 10.9681 9.92 10.9026V8.38655C9.92 8.32113 9.89401 8.25839 9.84775 8.21214C9.80149 8.16588 9.73875 8.13989 9.67333 8.13989H6.848C6.78246 8.13989 6.71958 8.16583 6.67311 8.21205C6.62664 8.25827 6.60035 8.32101 6.6 8.38655V10.9026C6.6 11.0386 6.712 11.1492 6.848 11.1506V11.1506ZM14.7053 14.7706H17.5293C17.5949 14.7706 17.6578 14.7446 17.7042 14.6984C17.7507 14.6522 17.777 14.5894 17.7773 14.5239V12.0079C17.7773 11.9421 17.7512 11.879 17.7047 11.8325C17.6582 11.786 17.5951 11.7599 17.5293 11.7599H14.7053C14.6399 11.7599 14.5772 11.7859 14.5309 11.8321C14.4847 11.8784 14.4587 11.9411 14.4587 12.0066V14.5239C14.4587 14.6599 14.568 14.7706 14.7053 14.7706V14.7706ZM10.7987 14.7706H13.6253C13.6905 14.7702 13.7529 14.7441 13.7989 14.6978C13.8449 14.6516 13.8707 14.5891 13.8707 14.5239V12.0079C13.8708 11.9755 13.8646 11.9434 13.8524 11.9134C13.8402 11.8834 13.8221 11.8561 13.7994 11.8331C13.7766 11.81 13.7495 11.7917 13.7196 11.7792C13.6898 11.7666 13.6577 11.7601 13.6253 11.7599H10.7987C10.7335 11.7602 10.6711 11.7864 10.6251 11.8326C10.5791 11.8788 10.5533 11.9414 10.5533 12.0066V14.5239C10.5533 14.6599 10.664 14.7706 10.8 14.7706H10.7987ZM6.848 14.7706H9.67333C9.73875 14.7706 9.80149 14.7446 9.84775 14.6983C9.89401 14.652 9.92 14.5893 9.92 14.5239V12.0079C9.92018 11.9755 9.91397 11.9434 9.90173 11.9134C9.8895 11.8834 9.87148 11.8561 9.8487 11.8331C9.82592 11.81 9.79882 11.7917 9.76896 11.7792C9.7391 11.7666 9.70706 11.7601 9.67467 11.7599H6.848C6.78223 11.7599 6.71915 11.786 6.67264 11.8325C6.62613 11.879 6.6 11.9421 6.6 12.0079V14.5239C6.6 14.6599 6.712 14.7706 6.848 14.7706V14.7706ZM2.95467 14.7706H5.78133C5.84652 14.7702 5.90892 14.7441 5.95489 14.6978C6.00086 14.6516 6.02667 14.5891 6.02667 14.5239V12.0079C6.02684 11.9755 6.02064 11.9434 6.0084 11.9134C5.99617 11.8834 5.97815 11.8561 5.95536 11.8331C5.93258 11.81 5.90549 11.7917 5.87563 11.7792C5.84577 11.7666 5.81373 11.7601 5.78133 11.7599H2.95467C2.88948 11.7602 2.82708 11.7864 2.78111 11.8326C2.73514 11.8788 2.70933 11.9414 2.70933 12.0066V14.5239C2.70933 14.6599 2.81867 14.7706 2.956 14.7706H2.95467ZM31.684 13.1866C31.5973 13.1186 30.788 12.5066 29.0787 12.5066C28.628 12.5079 28.1773 12.5466 27.732 12.6226C27.4013 10.3559 25.528 9.24922 25.444 9.20122L24.9853 8.93589L24.684 9.37189C24.3053 9.95589 24.0307 10.6012 23.868 11.2786C23.5613 12.5719 23.748 13.7879 24.4053 14.8266C23.612 15.2692 22.3387 15.3772 22.08 15.3866H1.00133C0.736686 15.3869 0.482939 15.492 0.295555 15.6789C0.108171 15.8658 0.0023901 16.1192 0.00133315 16.3839C-0.0233579 18.2303 0.289326 20.0658 0.924 21.7999C1.65067 23.7039 2.73067 25.1066 4.13733 25.9652C5.71067 26.9292 8.27067 27.4812 11.1707 27.4812C12.4811 27.4852 13.789 27.3665 15.0773 27.1266C16.8678 26.7976 18.5907 26.1717 20.1747 25.2746C21.4804 24.5187 22.6555 23.557 23.6547 22.4266C25.324 20.5359 26.3187 18.4306 27.0587 16.5599H27.3533C29.1827 16.5599 30.3067 15.8279 30.9267 15.2146C31.3387 14.8239 31.66 14.3479 31.8693 13.8199L32 13.4359L31.684 13.1866Z"
              fill="#2496ed"/>
    </g>
    <defs>
        <clipPath id="clip0">
            <rect width="32" height="32" fill="white"/>
        </clipPath>
    </defs>
</svg>
