<svg xmlns="http://www.w3.org/2000/svg" fill="none" viewBox="0 0 57 65">
  <g clip-path="url(#clip0)">
    <path fill="#5294CF" d="M36.8 64.61h.78l12.75-6.35.2-.3V7.25l-.2-.3L37.58.6h-.8l.02 64.01z"/>
    <path fill="#1F5B98" d="M20.2 64.61h-.79L6.67 58.26l-.26-.44L6.28 7.5l.4-.56L19.4.6h.8v64.01z"/>
    <path fill="#2D72B8" d="M19.43.6h18.13v64.01H19.43V.6z"/>
    <path fill="#1A476F" d="M57 31.17l-.43-.1-6.15-.57-.1.05-12.75-.51H19.43l-12.76.5v-9.69h-.01l.01-.02 12.76-2.95h18.14l12.76 2.95 4.69 2.48v-1.6L57 21.5l-.2-.4-6.28-4.47-.2.06-12.75-3.94H19.43L6.67 16.69V6.95L0 14.74v6.8l.05-.03 1.93.2v1.64L0 24.4v6.77h.05l1.93.03v2.84l-1.66.02-.32-.03v6.78l1.98 1.06v1.65l-1.9.2-.08-.05v6.8l6.67 7.8v-9.75l12.76 3.94h18.14l12.8-3.95.16.07 6.2-4.4.27-.44-1.98-.22V41.9l-.26-.1-4.24 2.28-.16.32-12.8 2.93H19.44L6.67 44.38v-9.73l12.76.5v.02h18.14l12.76-.52.29.13 5.96-.5.42-.21-1.98-.03V31.2l1.98-.03z"/>
    <path fill="#2D72B8" d="M50.33 48.52v9.74l6.67-7.8v-6.75l-6.64 4.8-.03.01zM50.33 44.4h.03L57 40.84v-6.8l-6.67.61v9.76zM50.36 20.84l-.03-.01v9.72l6.67.62v-6.8l-6.64-3.53zM50.36 16.73L57 21.5v-6.76l-6.67-7.8v9.75l.03.01v.03z"/>
  </g>
  <defs>
    <clipPath id="clip0">
      <path fill="#fff" d="M0 0h57v64.13H0z" transform="translate(0 .6)"/>
    </clipPath>
  </defs>
</svg>
