<svg width="32" height="32" viewBox="0 0 32 32" fill="none" xmlns="http://www.w3.org/2000/svg">
    <path d="M16 0.0109863C7.09899 0.0109863 0.010994 7.09899 0.010994 16C0.010994 24.901 7.09899 31.995 16 31.995C24.901 31.995 31.989 24.902 31.989 16C31.989 7.09799 24.901 0.0109863 16 0.0109863ZM3.48399 16.14L15.864 28.516C9.04699 28.516 3.48399 22.953 3.48399 16.14ZM18.781 28.24L3.76499 13.219C5.01599 7.65599 10.021 3.48399 16 3.48399C17.9767 3.48807 19.9248 3.95588 21.6878 4.8498C23.4509 5.74372 24.9795 7.03882 26.151 8.63099L24.344 10.162C23.4024 8.78287 22.137 7.65575 20.6586 6.8794C19.1801 6.10305 17.5338 5.70117 15.864 5.70899C13.7512 5.69635 11.6879 6.34784 9.96549 7.57143C8.24306 8.79502 6.94861 10.5288 6.26499 12.528L19.338 25.6C22.535 24.485 25.041 21.704 25.734 18.365H20.311V16.001H28.515C28.515 21.98 24.343 26.99 18.78 28.241L18.781 28.24Z"
          fill="#663399"/>
</svg>
