<svg width="43" height="43" viewBox="0 0 43 43" fill="none" xmlns="http://www.w3.org/2000/svg">
<path d="M21.5 3.58337C19.1471 3.58337 16.8173 4.0468 14.6436 4.9472C12.4698 5.8476 10.4947 7.16733 8.83098 8.83104C5.47096 12.1911 3.58331 16.7482 3.58331 21.5C3.58331 29.4192 8.7254 36.138 15.8383 38.5209C16.7341 38.6642 17.0208 38.1088 17.0208 37.625V34.5971C12.0579 35.6721 11.0008 32.1963 11.0008 32.1963C10.1766 30.118 9.01206 29.5625 9.01206 29.5625C7.38165 28.4517 9.13748 28.4875 9.13748 28.4875C10.9291 28.613 11.8787 30.333 11.8787 30.333C13.4375 33.0563 16.0712 32.25 17.0925 31.82C17.2537 30.6555 17.7196 29.8671 18.2212 29.4192C14.2437 28.9713 10.0691 27.4305 10.0691 20.6042C10.0691 18.6155 10.75 17.0209 11.9146 15.7488C11.7354 15.3009 11.1083 13.4375 12.0937 11.0188C12.0937 11.0188 13.5987 10.535 17.0208 12.8463C18.4362 12.4521 19.9771 12.255 21.5 12.255C23.0229 12.255 24.5637 12.4521 25.9791 12.8463C29.4012 10.535 30.9062 11.0188 30.9062 11.0188C31.8916 13.4375 31.2646 15.3009 31.0854 15.7488C32.25 17.0209 32.9308 18.6155 32.9308 20.6042C32.9308 27.4484 28.7383 28.9534 24.7429 29.4013C25.3879 29.9567 25.9791 31.0496 25.9791 32.7159V37.625C25.9791 38.1088 26.2658 38.6821 27.1796 38.5209C34.2925 36.12 39.4166 29.4192 39.4166 21.5C39.4166 19.1472 38.9532 16.8174 38.0528 14.6436C37.1524 12.4699 35.8327 10.4948 34.169 8.83104C32.5053 7.16733 30.5301 5.8476 28.3564 4.9472C26.1826 4.0468 23.8528 3.58337 21.5 3.58337Z" fill="black"/>
</svg>
