<svg width="32" height="32" viewBox="0 0 32 32" fill="none" xmlns="http://www.w3.org/2000/svg">
<path d="M28.0507 6.53339L17.948 0.536052C17.3583 0.185752 16.685 0.000986272 15.9992 0.00122093C15.3133 0.00145558 14.6401 0.186682 14.0507 0.537385L3.948 6.53339C3.35071 6.89385 2.85721 7.40316 2.51575 8.01151C2.1743 8.61987 1.99659 9.30643 2 10.0041V21.9974C2 23.4281 2.74267 24.7521 3.94934 25.4681L14.052 31.4641C14.6414 31.8143 15.3144 31.9992 16 31.9992C16.6856 31.9992 17.3586 31.8143 17.948 31.4641L28.0507 25.4681C28.6482 25.1078 29.142 24.5985 29.4837 23.9901C29.8254 23.3818 30.0033 22.6951 30 21.9974V10.0041C30.0035 9.30625 29.8257 8.6195 29.484 8.01109C29.1423 7.40268 28.6484 6.89348 28.0507 6.53339V6.53339ZM20.2267 25.2614L20.244 26.1227C20.2453 26.2267 20.1773 26.3454 20.096 26.3867L19.5853 26.6801C19.504 26.7214 19.4373 26.6707 19.436 26.5667L19.4267 25.7201C18.9893 25.9014 18.5467 25.9454 18.264 25.8321C18.2107 25.8107 18.188 25.7321 18.2093 25.6427L18.3947 24.8641C18.4087 24.8024 18.4407 24.7462 18.4867 24.7027C18.501 24.689 18.5172 24.6774 18.5347 24.6681C18.564 24.6534 18.592 24.6494 18.6173 24.6601C18.9227 24.7627 19.312 24.7147 19.6867 24.5254C20.1627 24.2841 20.4813 23.7987 20.476 23.3161C20.472 22.8787 20.2347 22.6961 19.6587 22.6921C18.9253 22.6934 18.24 22.5494 18.2293 21.4694C18.22 20.5801 18.6827 19.6547 19.4147 19.0694L19.4053 18.2001C19.404 18.0934 19.4693 17.9761 19.5533 17.9334L20.0467 17.6187C20.128 17.5774 20.1947 17.6281 20.196 17.7347L20.204 18.6054C20.568 18.4601 20.8853 18.4214 21.172 18.4881C21.2347 18.5041 21.2613 18.5894 21.236 18.6894L21.044 19.4601C21.0293 19.5184 20.9994 19.5717 20.9573 19.6147C20.9424 19.6296 20.9253 19.6422 20.9067 19.6521C20.8836 19.665 20.8566 19.6693 20.8307 19.6641C20.7 19.6347 20.388 19.5667 19.8987 19.8147C19.3853 20.0747 19.2053 20.5214 19.2093 20.8521C19.2133 21.2481 19.416 21.3681 20.1173 21.3801C21.0507 21.3961 21.4547 21.8041 21.464 22.7441C21.4733 23.6627 20.9813 24.6547 20.2267 25.2614V25.2614ZM25.524 23.8121C25.524 23.8921 25.5133 23.9667 25.4467 24.0054L22.892 25.5574C22.8253 25.5961 22.772 25.5627 22.772 25.4827V24.8241C22.772 24.7441 22.8213 24.7001 22.888 24.6614L25.404 23.1561C25.4707 23.1174 25.524 23.1507 25.524 23.2307V23.8121ZM27.2787 9.06272L17.7213 14.9654C16.5293 15.6627 15.6507 16.4441 15.6507 17.8814V29.6587C15.6507 30.5187 15.9973 31.0761 16.5307 31.2374C16.3556 31.2701 16.1781 31.2875 16 31.2894C15.44 31.2894 14.8893 31.1374 14.404 30.8494L4.30134 24.8534C3.81071 24.5559 3.4054 24.1366 3.12479 23.6361C2.84419 23.1357 2.69785 22.5711 2.7 21.9974V10.0041C2.7 8.82938 3.31334 7.73472 4.30134 7.14805L14.404 1.15072C14.8869 0.863595 15.4382 0.712047 16 0.712047C16.5618 0.712047 17.1131 0.863595 17.596 1.15072L27.6987 7.14805C28.1097 7.39702 28.4615 7.73262 28.7295 8.13146C28.9975 8.53029 29.1754 8.98278 29.2507 9.45739C28.9147 8.74272 28.16 8.54805 27.2787 9.06272V9.06272Z" fill="black"/>
</svg>
