<svg width="32" height="32" viewBox="0 0 32 32" fill="none" xmlns="http://www.w3.org/2000/svg">
    <path d="M18.734 3.66696L25.312 7.46896C25.6181 7.14727 25.9949 6.9012 26.4125 6.7502C26.83 6.5992 27.277 6.5474 27.7181 6.59891C28.1592 6.65042 28.5822 6.80381 28.9538 7.04697C29.3253 7.29014 29.6352 7.6164 29.859 7.99996C30.0801 8.38496 30.2085 8.81617 30.2341 9.25942C30.2596 9.70267 30.1816 10.1458 30.0061 10.5536C29.8307 10.9615 29.5627 11.3229 29.2233 11.6091C28.8839 11.8954 28.4826 12.0987 28.051 12.203V19.802C28.4833 19.904 28.8857 20.106 29.2259 20.3916C29.566 20.6773 29.8345 21.0387 30.0097 21.4469C30.1849 21.8551 30.262 22.2987 30.2348 22.7421C30.2076 23.1854 30.0768 23.6163 29.853 24C29.6267 24.3907 29.311 24.7222 28.9319 24.9675C28.5528 25.2127 28.121 25.3647 27.6719 25.4109C27.2227 25.4572 26.769 25.3964 26.3479 25.2335C25.9267 25.0706 25.5502 24.8104 25.249 24.474L18.707 28.25C18.8488 28.6787 18.8868 29.135 18.8179 29.5813C18.749 30.0276 18.5752 30.4512 18.3108 30.8172C18.0463 31.1833 17.6988 31.4814 17.2967 31.687C16.8947 31.8926 16.4496 31.9999 15.998 32C15.5541 32.0003 15.1163 31.8969 14.7195 31.6982C14.3226 31.4994 13.9777 31.2106 13.7121 30.855C13.4466 30.4993 13.2678 30.0865 13.19 29.6495C13.1122 29.2125 13.1375 28.7634 13.264 28.338L6.681 24.541C6.42249 24.8127 6.11288 25.0307 5.76994 25.1826C5.427 25.3344 5.05746 25.417 4.68251 25.4258C4.30756 25.4345 3.93457 25.3691 3.58493 25.2334C3.23529 25.0977 2.91588 24.8944 2.645 24.635C2.27598 24.2802 2.009 23.8328 1.87192 23.3396C1.73485 22.8464 1.73272 22.3254 1.86575 21.8311C1.99878 21.3367 2.2621 20.8872 2.6282 20.5294C2.9943 20.1716 3.44975 19.9186 3.947 19.797V12.198C3.54842 12.1031 3.17496 11.9234 2.85205 11.6713C2.52913 11.4191 2.26434 11.1003 2.0757 10.7366C1.88706 10.3729 1.779 9.9728 1.75888 9.56358C1.73875 9.15436 1.80703 8.74561 1.95907 8.36515C2.11111 7.98469 2.34334 7.64145 2.63995 7.3588C2.93656 7.07616 3.29058 6.86073 3.67793 6.7272C4.06527 6.59367 4.47684 6.54516 4.88462 6.58498C5.29239 6.6248 5.6868 6.75202 6.041 6.95796C6.275 7.09296 6.494 7.25996 6.682 7.45796L13.265 3.66096C13.0503 2.93639 13.1322 2.15621 13.4926 1.49199C13.853 0.827769 14.4625 0.33389 15.187 0.11896C15.6796 -0.0283375 16.2029 -0.0396206 16.7014 0.0863065C17.2 0.212234 17.6551 0.47068 18.0187 0.834257C18.3823 1.19783 18.6407 1.653 18.7666 2.15152C18.8926 2.65003 18.8813 3.17333 18.734 3.66596V3.66696ZM18.047 4.83896C18.021 4.86496 18 4.89096 17.969 4.91696L26.584 19.834C26.62 19.824 26.662 19.813 26.693 19.803V12.194C26.3302 12.1042 25.9886 11.9438 25.6879 11.7218C25.3872 11.4998 25.1333 11.2207 24.9407 10.9003C24.7481 10.58 24.6206 10.2248 24.5656 9.85511C24.5106 9.48541 24.5291 9.10849 24.62 8.74596C24.625 8.71496 24.636 8.67796 24.641 8.64696L18.047 4.83896ZM14.026 4.91696L13.948 4.83896L7.354 8.64096C7.56282 9.36685 7.47495 10.146 7.10969 10.8071C6.74443 11.4682 6.13166 11.9573 5.406 12.167L5.302 12.193V19.802L5.417 19.833L14.032 4.91596L14.026 4.91696ZM16.797 5.59396C16.2774 5.73996 15.7276 5.73996 15.208 5.59396L6.593 20.511C6.984 20.886 7.26 21.37 7.395 21.902H24.609C24.739 21.371 25.015 20.886 25.411 20.506L16.797 5.59396ZM18.109 27.229L24.661 23.443C24.64 23.38 24.625 23.318 24.609 23.255H7.39L7.359 23.364L13.948 27.166C14.2137 26.8901 14.5324 26.6708 14.8851 26.5213C15.2377 26.3717 15.617 26.2951 16 26.296C16.839 26.296 17.589 26.655 18.109 27.228V27.229Z"
          fill="#e536ab"/>
</svg>
