<svg width="33" height="33" viewBox="0 0 33 33" fill="none" xmlns="http://www.w3.org/2000/svg">
<path d="M28.3594 3.60938H4.64062C4.07021 3.60938 3.60938 4.07021 3.60938 4.64062V28.3594C3.60938 28.9298 4.07021 29.3906 4.64062 29.3906H28.3594C28.9298 29.3906 29.3906 28.9298 29.3906 28.3594V4.64062C29.3906 4.07021 28.9298 3.60938 28.3594 3.60938ZM11.2567 25.5782H7.43145V13.2741H11.2567V25.5782ZM9.3457 11.5919C8.90719 11.5919 8.47851 11.4619 8.1139 11.2182C7.74929 10.9746 7.4651 10.6283 7.29729 10.2232C7.12948 9.81805 7.08557 9.37225 7.17112 8.94215C7.25667 8.51206 7.46784 8.117 7.77792 7.80692C8.08799 7.49684 8.48306 7.28567 8.91315 7.20012C9.34324 7.11457 9.78905 7.15848 10.1942 7.32629C10.5993 7.49411 10.9456 7.77829 11.1892 8.1429C11.4329 8.50752 11.5629 8.93619 11.5629 9.37471C11.5597 10.5993 10.5671 11.5919 9.3457 11.5919ZM25.5782 25.5782H21.7562V19.5938C21.7562 18.1661 21.7304 16.3324 19.7678 16.3324C17.7794 16.3324 17.4732 17.8857 17.4732 19.4906V25.5782H13.6544V13.2741H17.3218V14.9563H17.3733C17.8825 13.9896 19.1297 12.968 20.9924 12.968C24.866 12.968 25.5782 15.5171 25.5782 18.83V25.5782Z" fill="black"/>
</svg>
