<svg width="32" height="32" viewBox="0 0 32 32" fill="none" xmlns="http://www.w3.org/2000/svg">
<path d="M16 0L2.14 8V24L16 32L29.86 24V8L16 0ZM24 22.12C24 23.063 23.14 23.839 21.964 23.839C21.12 23.839 20.161 23.5 19.563 22.76L11.563 13.24V22.12C11.563 23.079 10.803 23.839 9.86 23.839H9.76C9.30514 23.8356 8.86988 23.6534 8.54824 23.3318C8.2266 23.0101 8.0444 22.5749 8.041 22.12V9.88C8.041 8.937 8.88 8.161 10.041 8.161C10.901 8.161 11.88 8.5 12.478 9.24L20.437 18.76V9.88C20.437 8.917 21.24 8.161 22.161 8.161H22.26C22.715 8.16388 23.1506 8.34592 23.4723 8.66767C23.7941 8.98942 23.9761 9.42498 23.979 9.88V22.12H24Z" fill="black"/>
</svg>
