<svg width="40" height="40" viewBox="0 0 40 40" fill="none" xmlns="http://www.w3.org/2000/svg">
<path d="M29.0625 2.42188H10.9375C9.55859 2.42188 8.4375 3.54297 8.4375 4.92188V34.9219C8.4375 36.3008 9.55859 37.4219 10.9375 37.4219H29.0625C30.4414 37.4219 31.5625 36.3008 31.5625 34.9219V4.92188C31.5625 3.54297 30.4414 2.42188 29.0625 2.42188ZM28.75 34.6094H11.25V5.23438H28.75V34.6094ZM18.4375 30.625C18.4375 31.0394 18.6021 31.4368 18.8951 31.7299C19.1882 32.0229 19.5856 32.1875 20 32.1875C20.4144 32.1875 20.8118 32.0229 21.1049 31.7299C21.3979 31.4368 21.5625 31.0394 21.5625 30.625C21.5625 30.2106 21.3979 29.8132 21.1049 29.5201C20.8118 29.2271 20.4144 29.0625 20 29.0625C19.5856 29.0625 19.1882 29.2271 18.8951 29.5201C18.6021 29.8132 18.4375 30.2106 18.4375 30.625Z" fill="black"/>
</svg>
