<svg width="32" height="48" viewBox="0 0 32 48" fill="none" xmlns="http://www.w3.org/2000/svg">
<path d="M31.6778 26.8507H0.274002V25.075C0.274002 23.8819 1.23863 22.9148 2.4285 22.9148H29.5231C30.7131 22.9148 31.6778 23.8819 31.6778 25.075V26.8507Z" fill="#DFDEDF"/>
<path d="M29.49 47.4426H2.4615C1.25325 47.4426 0.27375 46.4605 0.27375 45.2491V26.8506H31.6775V45.249C31.6775 46.4604 30.6981 47.4425 29.4898 47.4425" fill="white"/>
<path d="M31.2878 26.4939V24.9015C31.2878 23.9614 30.5277 23.1993 29.5901 23.1993H2.40987C1.47225 23.1993 0.71225 23.9613 0.71225 24.9015V26.4939H31.2878V26.4939ZM31.2878 45.4769V27.208H0.71225V45.4768C0.71225 46.417 1.47225 47.179 2.40987 47.179H29.5901C30.5277 47.179 31.2878 46.417 31.2878 45.4769ZM2.56925 22.4853L2.675 21.3278L2.226 22.4946C2.28688 22.4899 2.34775 22.4853 2.40987 22.4853H2.56925ZM29.2444 20.534L29.4011 22.4853H29.5901C29.6912 22.4853 29.7902 22.4936 29.8881 22.5057L29.2444 20.534V20.534ZM31.4002 23.3117C31.7724 23.7371 32 24.2925 32 24.9015V45.4769C32 46.8091 30.9189 47.8931 29.5901 47.8931H2.40987C1.08112 47.8931 0 46.8093 0 45.4768V24.9016C0 24.2559 0.255375 23.67 0.668375 23.236L3.07087 16.9926L4.1185 5.51848L5.3005 5.62688L4.3565 15.9653L4.689 16.0939L4.23775 17.2667L3.76125 22.4853H28.2104L26.8536 5.59831L28.0366 5.50269L28.8369 15.4622L28.8374 15.4621L31.4002 23.3118V23.3117ZM2.6445 24.3632C2.7158 24.3621 2.7866 24.3752 2.85279 24.4018C2.91898 24.4284 2.97923 24.468 3.03004 24.5181C3.08084 24.5683 3.12119 24.6281 3.14873 24.6941C3.17627 24.76 3.19045 24.8308 3.19045 24.9023C3.19045 24.9738 3.17627 25.0445 3.14873 25.1105C3.12119 25.1764 3.08084 25.2362 3.03004 25.2864C2.97923 25.3366 2.91898 25.3761 2.85279 25.4027C2.7866 25.4293 2.7158 25.4425 2.6445 25.4414C2.50332 25.4392 2.36864 25.3815 2.26956 25.2806C2.17048 25.1797 2.11495 25.0438 2.11495 24.9023C2.11495 24.7607 2.17048 24.6248 2.26956 24.5239C2.36864 24.4231 2.50332 24.3653 2.6445 24.3632V24.3632ZM4.48313 24.3632C4.55443 24.3621 4.62523 24.3752 4.69142 24.4018C4.75761 24.4284 4.81785 24.468 4.86866 24.5181C4.91947 24.5683 4.95981 24.6281 4.98735 24.6941C5.01489 24.76 5.02907 24.8308 5.02907 24.9023C5.02907 24.9738 5.01489 25.0445 4.98735 25.1105C4.95981 25.1764 4.91947 25.2362 4.86866 25.2864C4.81785 25.3366 4.75761 25.3761 4.69142 25.4027C4.62523 25.4293 4.55443 25.4425 4.48313 25.4414C4.34194 25.4392 4.20727 25.3815 4.10819 25.2806C4.00911 25.1797 3.95357 25.0438 3.95357 24.9023C3.95357 24.7607 4.00911 24.6248 4.10819 24.5239C4.20727 24.4231 4.34194 24.3653 4.48313 24.3632V24.3632ZM6.26363 24.3632C6.33493 24.3621 6.40573 24.3752 6.47192 24.4018C6.53811 24.4284 6.59835 24.468 6.64916 24.5181C6.69997 24.5683 6.74031 24.6281 6.76785 24.6941C6.79539 24.76 6.80957 24.8308 6.80957 24.9023C6.80957 24.9738 6.79539 25.0445 6.76785 25.1105C6.74031 25.1764 6.69997 25.2362 6.64916 25.2864C6.59835 25.3366 6.53811 25.3761 6.47192 25.4027C6.40573 25.4293 6.33493 25.4425 6.26363 25.4414C6.12244 25.4392 5.98777 25.3815 5.88869 25.2806C5.78961 25.1797 5.73407 25.0438 5.73407 24.9023C5.73407 24.7607 5.78961 24.6248 5.88869 24.5239C5.98777 24.4231 6.12244 24.3653 6.26363 24.3632V24.3632Z" fill="black"/>
<path d="M4.50275 36.0624C4.59512 35.9552 4.64375 35.8144 4.64375 35.6395C4.64375 35.4646 4.595 35.3293 4.50275 35.2222C4.4055 35.115 4.26925 35.0643 4.09425 35.0643H3.23837V36.2202H4.09425C4.26925 36.2202 4.4055 36.1694 4.50275 36.0624ZM4.09425 34.3708C4.46375 34.3708 4.7555 34.4836 4.97425 34.7147C5.19325 34.9458 5.30025 35.2559 5.30025 35.6397C5.30025 36.0284 5.19325 36.333 4.97937 36.5641C4.7605 36.7954 4.46875 36.9137 4.09425 36.9137H3.23837V38.4695H2.577V34.3708H4.09425V34.3708ZM7.66225 36.8845V35.6889H8.3745V38.3884H7.66225V38.1451C7.44637 38.3614 7.166 38.4695 6.81512 38.4695C6.49137 38.4695 6.23237 38.3614 6.03275 38.1504C5.83312 37.9395 5.736 37.6689 5.736 37.3336V35.6889H6.44825V37.182C6.44825 37.3713 6.49675 37.5283 6.59925 37.642C6.69637 37.7555 6.82587 37.8149 6.99312 37.8149C7.441 37.8149 7.66225 37.5066 7.66225 36.8845V36.8845ZM11.153 37.6257C11.2932 37.4796 11.3634 37.2848 11.3634 37.0414C11.3634 36.798 11.2934 36.5978 11.153 36.4518C11.0072 36.3056 10.8292 36.2299 10.608 36.2299C10.4084 36.2299 10.2305 36.3056 10.0739 36.4572C9.91737 36.6087 9.84187 36.8033 9.84187 37.0414C9.84187 37.2794 9.91737 37.4743 10.0739 37.6202C10.2304 37.7718 10.4084 37.8475 10.608 37.8475C10.8292 37.8475 11.0072 37.7718 11.153 37.6257V37.6257ZM10.7321 35.6078C11.0829 35.6078 11.3959 35.7432 11.6602 36.0136C11.9246 36.2893 12.054 36.6302 12.054 37.0413C12.054 37.4524 11.9246 37.7933 11.6602 38.0638C11.3957 38.3344 11.0882 38.4695 10.7321 38.4695C10.3814 38.4695 10.0846 38.3721 9.84187 38.1775V39.6763H9.12962V35.6889H9.84187V35.9053C10.0794 35.7052 10.376 35.6078 10.7321 35.6078V35.6078ZM14.6169 37.6256C14.7571 37.4796 14.8272 37.2847 14.8272 37.0414C14.8272 36.798 14.7571 36.5978 14.6169 36.4518C14.4711 36.3056 14.2931 36.2299 14.0719 36.2299C13.8722 36.2299 13.6942 36.3056 13.5377 36.4572C13.3812 36.6087 13.3056 36.8033 13.3056 37.0414C13.3056 37.2794 13.3812 37.4743 13.5377 37.6202C13.6942 37.7718 13.8722 37.8475 14.0719 37.8475C14.2931 37.8475 14.4711 37.7718 14.6169 37.6257V37.6256ZM14.1959 35.6078C14.5466 35.6078 14.8596 35.7432 15.1241 36.0136C15.3884 36.2893 15.5179 36.6302 15.5179 37.0413C15.5179 37.4524 15.3884 37.7933 15.1241 38.0638C14.8596 38.3344 14.5521 38.4695 14.1959 38.4695C13.8452 38.4695 13.5484 38.3721 13.3056 38.1775V39.6763H12.5935V35.6889H13.3056V35.9053C13.5431 35.7052 13.8399 35.6078 14.1959 35.6078ZM16.5697 36.7276H17.8701C17.827 36.5599 17.746 36.4356 17.6327 36.3541C17.5194 36.2732 17.3846 36.2299 17.2334 36.2299C17.0866 36.2297 16.9434 36.2751 16.8234 36.3598C16.6939 36.4463 16.6075 36.5707 16.5697 36.7276ZM17.2335 35.6078C17.6004 35.6078 17.9187 35.7377 18.1831 35.9919C18.4475 36.2516 18.5824 36.5815 18.5986 36.9873V37.2308H16.5482C16.586 37.42 16.667 37.5714 16.7911 37.6852C16.9151 37.7988 17.0554 37.8582 17.2226 37.8582C17.5302 37.8582 17.7515 37.7391 17.8917 37.5013L18.5285 37.6365C18.4151 37.9125 18.2425 38.1181 18.016 38.2587C17.7892 38.3993 17.5249 38.4695 17.2226 38.4695C16.8341 38.4695 16.5051 38.3344 16.2406 38.0694C15.9762 37.8043 15.8412 37.458 15.8412 37.0414C15.8412 36.625 15.9762 36.2787 16.246 36.0081C16.5104 35.7432 16.8397 35.6078 17.2335 35.6078V35.6078ZM20.5625 37.8043C20.6974 37.8043 20.8485 37.7609 21.0104 37.6745L21.2154 38.2695C20.9671 38.4047 20.7351 38.4697 20.5139 38.4697C20.1847 38.4697 19.9257 38.3777 19.7369 38.1989C19.5481 38.0207 19.4564 37.7555 19.4564 37.3931V36.2732H18.8789V35.6889H19.4564V34.8722H20.1686V35.6889H21.0481V36.2732H20.1686V37.339C20.1686 37.6473 20.2981 37.8043 20.5624 37.8043H20.5625ZM22.0567 36.7276H23.3571C23.314 36.5599 23.233 36.4356 23.1197 36.3541C23.0064 36.2732 22.8716 36.2299 22.7204 36.2299C22.5736 36.2297 22.4304 36.2751 22.3104 36.3598C22.1809 36.4463 22.0945 36.5707 22.0567 36.7276ZM22.7205 35.6078C23.0874 35.6078 23.4057 35.7377 23.6701 35.9919C23.9345 36.2516 24.0694 36.5815 24.0856 36.9873V37.2308H22.0352C22.073 37.42 22.154 37.5714 22.2781 37.6852C22.4021 37.7988 22.5424 37.8582 22.7096 37.8582C23.0172 37.8582 23.2385 37.7391 23.3787 37.5013L24.0154 37.6365C23.9021 37.9125 23.7295 38.1181 23.5029 38.2587C23.2762 38.3993 23.0119 38.4695 22.7096 38.4695C22.3211 38.4695 21.9921 38.3344 21.7276 38.0694C21.4632 37.8043 21.3282 37.458 21.3282 37.0414C21.3282 36.625 21.4632 36.2787 21.733 36.0081C21.9974 35.7432 22.3267 35.6078 22.7205 35.6078V35.6078ZM25.2561 36.7276H26.5565C26.5134 36.5599 26.4324 36.4356 26.3192 36.3541C26.2059 36.2732 26.071 36.2299 25.9197 36.2299C25.773 36.2297 25.6298 36.2751 25.5097 36.3598C25.3802 36.4463 25.2939 36.5707 25.2561 36.7276ZM25.9199 35.6078C26.2867 35.6078 26.6051 35.7377 26.8695 35.9919C27.1339 36.2516 27.2689 36.5815 27.2851 36.9873V37.2308H25.2346C25.2724 37.42 25.3534 37.5714 25.4776 37.6852C25.6016 37.7988 25.7419 37.8582 25.9091 37.8582C26.2166 37.8582 26.4379 37.7391 26.5781 37.5013L27.215 37.6365C27.1016 37.9125 26.929 38.1181 26.7024 38.2587C26.4756 38.3993 26.2112 38.4695 25.9091 38.4695C25.5206 38.4695 25.1914 38.3344 24.9271 38.0694C24.6627 37.8043 24.5276 37.458 24.5276 37.0414C24.5276 36.625 24.6626 36.2787 24.9324 36.0081C25.1967 35.7432 25.5261 35.6078 25.9199 35.6078V35.6078ZM29.5024 35.6511C29.5835 35.6511 29.6482 35.6564 29.6915 35.6726L29.6536 36.3598H29.4972C28.8551 36.3598 28.5366 36.7439 28.5366 37.5175V38.3884H27.8245V35.6889H28.5366V36.1812C28.7795 35.8295 29.1032 35.6511 29.5025 35.6511H29.5024Z" fill="black"/>
<path d="M26.3869 16.6231L30.2295 14.7632V12.9034L21.3516 8.65195L30.2295 4.06876V2.27534L26.5195 0.548096L16.0074 5.79564L5.31862 0.548221L1.87362 2.40806V4.00222L10.2212 8.58553L1.8735 12.8368V14.7631L5.45112 16.6231L16.0515 11.1761L26.3869 16.6231Z" fill="#00D8A2"/>
<path d="M26.8687 15.8644V15.0633L29.7612 13.5605V14.4603L26.8687 15.8644V15.8644ZM2.10625 13.5394L4.90125 15.1481V15.7886L2.10625 14.3709V13.5394ZM16.4229 10.1564L26.0379 14.9194V15.8772L16.4229 10.9387V10.1564V10.1564ZM5.73212 15.0588L15.5921 10.1573V10.9384L5.73212 15.9399V15.0588ZM12.7136 7.0498L2.73587 2.21997L5.32012 0.903164L16.0075 6.45801L26.5159 0.905545L29.1914 2.2795L19.4614 7.18903C19.0722 7.3853 19.0729 7.94225 19.4622 8.13775L29.092 12.97L26.596 14.2667L16.0075 8.82717L5.23175 14.3778L2.77062 12.9612L12.7194 8.00303C13.1134 7.80664 13.1101 7.24167 12.7137 7.0498H12.7136ZM2.2305 3.85623V2.97719L11.5362 7.63219L10.5955 8.00904L2.2305 3.85635V3.85623ZM21.3123 8.06068C21.2995 8.05291 20.421 7.63733 20.421 7.63733L29.7611 2.92443V3.80735L21.3125 8.0608L21.3123 8.06068ZM22.2472 8.52226L30.4565 4.38949C30.4973 4.36895 30.5316 4.33744 30.5555 4.29849C30.5795 4.25954 30.5921 4.21468 30.5921 4.16892V2.21383C30.5921 2.16844 30.5796 2.12393 30.556 2.08519C30.5324 2.04646 30.4986 2.01499 30.4584 1.99426L26.629 0.0277593C26.5944 0.0100275 26.5561 0.000749938 26.5173 0.000684594C26.4785 0.00061925 26.4401 0.00976794 26.4055 0.0273833L16.1176 5.26151C16.0834 5.27896 16.0456 5.28812 16.0072 5.28825C15.9687 5.28838 15.9309 5.27948 15.8965 5.26227L5.4275 0.0258794C5.39311 0.00871161 5.35519 -0.0001504 5.31677 1.93107e-06C5.27835 0.000154262 5.2405 0.00931671 5.20625 0.0267567L1.41 1.96104C1.36948 1.98166 1.33544 2.01312 1.31165 2.05194C1.28787 2.09077 1.27527 2.13543 1.27525 2.18099V4.16804C1.27525 4.26191 1.32837 4.34763 1.41237 4.38924L9.65625 8.47288L1.4505 12.5579C1.41017 12.578 1.37611 12.6088 1.35204 12.647C1.32797 12.6851 1.31481 12.7292 1.314 12.7743L1.27812 14.7282C1.27728 14.7746 1.2895 14.8203 1.31338 14.86C1.33725 14.8997 1.37183 14.9319 1.41312 14.9529L5.35512 16.9526C5.38946 16.97 5.42738 16.979 5.46584 16.9791C5.50431 16.9791 5.54225 16.9701 5.57662 16.9528L15.8964 11.7574C15.9308 11.7401 15.9688 11.7311 16.0074 11.7312C16.0459 11.7313 16.0839 11.7404 16.1182 11.7579L26.3095 16.9532C26.3433 16.9704 26.3806 16.9795 26.4185 16.9799C26.4564 16.9803 26.4939 16.9719 26.528 16.9553L30.4533 15.05C30.4948 15.0298 30.5299 14.9983 30.5545 14.959C30.5791 14.9198 30.5921 14.8744 30.5921 14.8281V12.7865C30.5921 12.6924 30.5387 12.6065 30.4546 12.565L22.2471 8.52238L22.2472 8.52226Z" fill="black"/>
</svg>
