<svg width="24" height="25" viewBox="0 0 24 25" fill="none" xmlns="http://www.w3.org/2000/svg">
<path d="M2.05001 15.779L2.07501 15.947L2.10101 15.941C2.2787 16.772 2.68804 17.5356 3.28167 18.1436C3.87529 18.7517 4.62894 19.1792 5.45541 19.3767C6.28188 19.5743 7.14739 19.5338 7.9518 19.2599C8.75621 18.986 9.46664 18.49 10.0009 17.8292C10.5351 17.1684 10.8714 16.3698 10.9707 15.5259C11.07 14.682 10.9283 13.8272 10.5621 13.0604C10.1958 12.2937 9.61995 11.6463 8.90109 11.1932C8.18223 10.74 7.34976 10.4997 6.50001 10.5C6.27701 10.5 6.06301 10.534 5.85001 10.565C5.91901 10.333 5.99001 10.097 6.10401 9.885C6.21801 9.577 6.39601 9.31 6.57301 9.041C6.72101 8.75 6.98201 8.553 7.17401 8.304C7.37501 8.062 7.64901 7.901 7.86601 7.7C8.07901 7.49 8.35801 7.385 8.58001 7.237C8.81201 7.104 9.01401 6.957 9.23001 6.887L9.76901 6.665L10.243 6.468L9.75901 4.529L9.16201 4.673C8.97101 4.721 8.73801 4.777 8.47301 4.844C8.20201 4.894 7.91301 5.031 7.59101 5.156C7.27401 5.299 6.90501 5.394 6.56301 5.623C6.21901 5.841 5.82201 6.023 5.47201 6.315C5.13301 6.616 4.72401 6.877 4.42201 7.259C4.09201 7.617 3.76601 7.993 3.51301 8.421C3.22001 8.829 3.02101 9.277 2.81101 9.72C2.62101 10.163 2.46801 10.616 2.34301 11.056C2.10601 11.938 2.00001 12.776 1.95901 13.493C1.92501 14.211 1.94501 14.808 1.98701 15.24C2.00106 15.4204 2.02208 15.6002 2.05001 15.779ZM13.05 15.779L13.075 15.947L13.101 15.941C13.2787 16.772 13.688 17.5356 14.2817 18.1436C14.8753 18.7517 15.6289 19.1792 16.4554 19.3767C17.2819 19.5743 18.1474 19.5338 18.9518 19.2599C19.7562 18.986 20.4666 18.49 21.0009 17.8292C21.5351 17.1684 21.8714 16.3699 21.9707 15.5259C22.07 14.682 21.9283 13.8272 21.5621 13.0604C21.1958 12.2937 20.6199 11.6463 19.9011 11.1932C19.1822 10.74 18.3498 10.4997 17.5 10.5C17.277 10.5 17.063 10.534 16.85 10.565C16.919 10.333 16.99 10.097 17.104 9.885C17.218 9.577 17.396 9.31 17.573 9.041C17.721 8.75 17.982 8.553 18.174 8.304C18.375 8.062 18.649 7.901 18.866 7.7C19.079 7.49 19.358 7.385 19.58 7.237C19.812 7.104 20.014 6.957 20.23 6.887L20.769 6.665C21.07 6.542 21.242 6.47 21.242 6.47L20.758 4.531L20.161 4.675C19.97 4.723 19.737 4.779 19.472 4.846C19.201 4.896 18.912 5.033 18.59 5.158C18.273 5.301 17.904 5.396 17.562 5.625C17.218 5.843 16.821 6.025 16.471 6.317C16.132 6.618 15.723 6.879 15.421 7.261C15.091 7.619 14.765 7.995 14.512 8.423C14.219 8.831 14.02 9.279 13.81 9.722C13.62 10.165 13.467 10.618 13.342 11.058C13.105 11.94 12.999 12.778 12.958 13.495C12.924 14.213 12.944 14.81 12.986 15.242C13.0009 15.4217 13.0223 15.6008 13.05 15.779Z" fill="#737373"/>
</svg>
