<svg width="32" height="32" viewBox="0 0 32 32" fill="none" xmlns="http://www.w3.org/2000/svg">
<path d="M16 13.146C14.427 13.146 13.146 14.427 13.146 16C13.146 17.573 14.427 18.854 16 18.854C17.573 18.854 18.854 17.573 18.854 16C18.854 14.427 17.573 13.146 16 13.146ZM8.01 21.672L7.38 21.516C2.692 20.328 0 18.318 0 15.995C0 13.672 2.693 11.662 7.38 10.474L8.01 10.318L8.187 10.943C8.66257 12.5801 9.27058 14.1757 10.005 15.714L10.14 15.995L10.005 16.281C9.26904 17.8188 8.66099 19.4145 8.187 21.052L8.01 21.672ZM7.089 11.932C3.526 12.932 1.339 14.468 1.339 15.995C1.339 17.522 3.527 19.052 7.089 20.058C7.52565 18.6707 8.05278 17.3134 8.667 15.995C8.05192 14.677 7.52477 13.3197 7.089 11.932V11.932ZM23.99 21.672L23.813 21.047C23.3383 19.4114 22.7302 17.8174 21.995 16.281L21.86 15.995L21.995 15.709C22.731 14.1713 23.339 12.5756 23.813 10.938L23.99 10.318L24.62 10.474C29.308 11.662 32 13.672 32 15.995C32 18.318 29.307 20.328 24.62 21.516L23.99 21.672ZM23.333 15.995C23.9493 17.3126 24.4764 18.6699 24.911 20.058C28.479 19.053 30.661 17.522 30.661 15.995C30.661 14.468 28.473 12.938 24.911 11.932C24.4733 13.319 23.9462 14.6762 23.333 15.995ZM7.078 11.927L6.901 11.302C5.583 6.65603 5.984 3.32303 8 2.16103C9.979 1.02003 13.151 2.36903 16.479 5.78603L16.932 6.25003L16.479 6.71403C15.2972 7.94366 14.2173 9.26735 13.25 10.672L13.068 10.927L12.755 10.953C11.0535 11.0873 9.36563 11.3592 7.708 11.766L7.078 11.927ZM9.609 3.08903C9.25 3.08903 8.932 3.16203 8.666 3.31803C7.343 4.08403 7.109 6.74003 8.02 10.323C9.44145 10.0051 10.8822 9.78059 12.333 9.65103C13.1683 8.46142 14.0816 7.32859 15.067 6.26003C12.989 4.23403 11.02 3.08803 9.609 3.08803V3.08903ZM22.396 30.234C22.391 30.234 22.391 30.234 22.396 30.234C20.495 30.234 18.052 28.807 15.521 26.203L15.068 25.739L15.521 25.275C16.7028 24.0454 17.7827 22.7217 18.75 21.317L18.927 21.062L19.24 21.031C20.9437 20.9012 22.6336 20.6293 24.292 20.218L24.922 20.062L25.099 20.687C26.417 25.333 26.016 28.661 24 29.822C23.5126 30.1022 22.9581 30.2443 22.396 30.233V30.234ZM16.932 25.729C19.01 27.755 20.979 28.901 22.39 28.901H22.395C22.749 28.901 23.067 28.823 23.333 28.672C24.656 27.906 24.896 25.25 23.979 21.667C22.5578 21.9853 21.1169 22.2082 19.666 22.334C18.8308 23.5253 17.9174 24.6598 16.932 25.73V25.729ZM24.922 11.927L24.292 11.766C22.6324 11.3606 20.943 11.0887 19.24 10.953L18.927 10.927L18.75 10.672C17.7827 9.26735 16.7028 7.94366 15.521 6.71403L15.068 6.25003L15.521 5.78603C18.849 2.36903 22.021 1.02003 24 2.16103C26.016 3.32203 26.417 6.65603 25.099 11.302L24.922 11.927ZM19.667 9.65103C21.1178 9.78024 22.5586 10.0047 23.98 10.323C24.897 6.74003 24.657 4.08303 23.334 3.31803C22.016 2.55803 19.537 3.72403 16.933 6.26103C17.9157 7.33189 18.8289 8.46454 19.667 9.65203V9.65103ZM9.609 30.234C9.046 30.244 8.489 30.104 8 29.823C5.984 28.662 5.583 25.333 6.901 20.688L7.078 20.063L7.708 20.219C9.25 20.61 10.948 20.88 12.755 21.032L13.068 21.063L13.245 21.318C14.2123 22.7227 15.2922 24.0464 16.474 25.276L16.927 25.74L16.474 26.204C13.948 28.808 11.505 30.235 9.609 30.235V30.234ZM8.021 21.667C7.104 25.25 7.344 27.907 8.667 28.672C9.985 29.422 12.459 28.266 15.068 25.729C14.0826 24.6588 13.1692 23.5243 12.334 22.333C10.883 22.2075 9.44211 21.9847 8.021 21.666V21.667ZM16 22.505C14.901 22.505 13.776 22.458 12.646 22.364L12.333 22.338L12.151 22.078C11.5127 21.1609 10.9132 20.2174 10.354 19.25C9.79365 18.2826 9.27419 17.2921 8.797 16.281L8.662 15.995L8.797 15.709C9.75303 13.6874 10.8749 11.7484 12.151 9.91203L12.333 9.65203L12.646 9.62603C14.878 9.43804 17.122 9.43804 19.354 9.62603L19.667 9.65203L19.849 9.91203C21.1268 11.7474 22.2487 13.6865 23.203 15.709L23.338 15.995L23.203 16.281C22.2506 18.3046 21.1286 20.2438 19.849 22.078L19.667 22.338L19.354 22.364C18.2384 22.4574 17.1195 22.5044 16 22.505V22.505ZM13.073 21.057C15.042 21.208 16.958 21.208 18.932 21.057C20.0329 19.4449 21.0113 17.7525 21.859 15.994C21.0149 14.2326 20.0346 12.5398 18.927 10.931C16.9786 10.78 15.0214 10.78 13.073 10.931C11.9646 12.5393 10.9843 14.2322 10.141 15.994C10.9889 17.7534 11.9691 19.4459 13.073 21.057V21.057Z" fill="black"/>
</svg>
