<svg width="32" height="32" viewBox="0 0 32 32" fill="none" xmlns="http://www.w3.org/2000/svg">
<path d="M16.0001 13.3333V21.3333V13.3333ZM16.0001 21.3333L12.0001 17.3333L16.0001 21.3333ZM16.0001 21.3333L20.0001 17.3333L16.0001 21.3333ZM22.6667 28H9.33341C8.62617 28 7.94789 27.719 7.4478 27.219C6.9477 26.7189 6.66675 26.0406 6.66675 25.3333V6.66667C6.66675 5.95942 6.9477 5.28115 7.4478 4.78105C7.94789 4.28095 8.62617 4 9.33341 4H16.7814C17.135 4.00008 17.4741 4.1406 17.7241 4.39067L24.9427 11.6093C25.1928 11.8593 25.3333 12.1984 25.3334 12.552V25.3333C25.3334 26.0406 25.0525 26.7189 24.5524 27.219C24.0523 27.719 23.374 28 22.6667 28Z" stroke="black" stroke-width="2" stroke-linecap="round" stroke-linejoin="round"/>
</svg>
