<svg width="33" height="33" viewBox="0 0 33 33" fill="none" xmlns="http://www.w3.org/2000/svg">
<path d="M24.578 2.0625V8.76562M24.578 8.76562L20.9687 5.15625M24.578 8.76562L28.1874 5.15625M12.7187 15.4688C10.1405 14.9531 8.59367 16.6807 8.59367 19.0781C8.59367 21.4756 10.1405 23.2031 12.7187 22.6875M15.2968 15.4688L17.8749 22.6875L20.9687 15.4688M21.6562 29.9063H7.90624C7.1769 29.9063 6.47743 29.6165 5.96171 29.1008C5.44598 28.5851 5.15625 27.8856 5.15625 27.1562V7.90625C5.15625 7.1769 5.44598 6.47743 5.96171 5.96171C6.47743 5.44598 7.1769 5.15625 7.90624 5.15625H15.587C15.9516 5.15633 16.3013 5.30124 16.5591 5.55913L24.0033 13.0033C24.2612 13.2612 24.4061 13.6109 24.4062 13.9755V27.1562C24.4062 27.8856 24.1166 28.5851 23.6008 29.1008C23.0851 29.6165 22.3856 29.9063 21.6562 29.9063Z" stroke="black" stroke-width="2" stroke-linecap="round" stroke-linejoin="round"/>
</svg>
