<svg viewBox="0 1 56 56" fill="none" xmlns="http://www.w3.org/2000/svg">
    <rect width="56" height="56" fill="white" transform="translate(0 0.400024)"/>
    <path d="M0 28.9V57.4H57V0.400024H0V28.9ZM45.9313 26.6271C47.2978 26.9489 48.5396 27.6649 49.5027 28.6863C50.0228 29.242 50.8013 30.2627 50.8672 30.5138C50.885 30.5886 48.409 32.2488 46.9057 33.1768C46.8504 33.2142 46.6278 32.9826 46.3855 32.6193C45.6534 31.5523 44.8822 31.0892 43.7048 31.0055C41.9787 30.8932 40.8654 31.7946 40.8743 33.3068C40.8653 33.6769 40.9479 34.0434 41.1148 34.3738C41.496 35.1629 42.2103 35.6349 44.4173 36.5915C48.4999 38.3442 50.2437 39.5038 51.3285 41.1461C52.5433 42.9826 52.8123 45.9145 51.9965 48.1037C51.088 50.4692 48.8419 52.083 45.6873 52.612C44.7129 52.7884 42.3937 52.7599 41.3446 52.5657C39.0539 52.1578 36.8826 51.0249 35.5466 49.5411C35.0176 48.9658 33.9969 47.4535 34.0628 47.352C34.0913 47.3146 34.3229 47.1667 34.583 47.0171L36.6991 45.7916L38.3414 44.8369L38.6852 45.3463C39.1679 46.0784 40.2153 47.0812 40.8476 47.4143C42.6663 48.3798 45.1618 48.2408 46.3962 47.1365C46.8968 46.7197 47.1764 46.0784 47.139 45.43C47.139 44.771 47.0553 44.4753 46.7115 43.9819C46.2662 43.3513 45.3667 42.8134 42.7963 41.7001C39.8555 40.4283 38.5837 39.6499 37.4347 38.3977C36.7115 37.5734 36.1766 36.6015 35.8672 35.5494C35.6535 34.7425 35.5983 32.719 35.7657 31.9121C36.3696 29.0639 38.5213 27.0885 41.61 26.5042C42.6128 26.3101 44.9498 26.3831 45.9331 26.6254L45.9313 26.6271ZM32.5541 29.0122L32.5719 31.3403H25.1495V52.4286H19.8983V31.3403H12.4866V29.0586C12.4866 27.7867 12.5151 26.7305 12.5507 26.702C12.5792 26.6646 17.0875 26.6467 22.5613 26.6556L32.5256 26.6841L32.5541 29.0122Z"
          fill="#007acc"/>
</svg>
