<svg width="32" height="32" viewBox="0 0 32 32" fill="none" xmlns="http://www.w3.org/2000/svg">
<path d="M28.625 9.099C29.7803 11.2154 30.3839 13.5888 30.38 16C30.38 21.307 27.51 25.943 23.234 28.432L27.625 15.729C28.448 13.677 28.719 12.036 28.719 10.578C28.719 10.036 28.683 9.536 28.625 9.099V9.099ZM17.984 9.24C18.849 9.198 19.625 9.099 19.625 9.099C20.401 9 20.313 7.859 19.536 7.901C19.536 7.901 17.197 8.078 15.697 8.078C14.28 8.078 11.895 7.88 11.895 7.88C11.119 7.838 11.015 9.021 11.796 9.062C11.796 9.062 12.515 9.14 13.296 9.182L15.536 15.317L12.375 24.76L7.141 9.197C8.006 9.161 8.787 9.067 8.787 9.067C9.563 8.968 9.475 7.827 8.698 7.869C8.698 7.869 6.37 8.056 4.865 8.056C4.599 8.056 4.282 8.046 3.948 8.035C6.547 4.196 10.979 1.618 16 1.618C19.745 1.618 23.151 3.045 25.714 5.394C25.651 5.394 25.594 5.384 25.526 5.384C24.115 5.384 23.109 6.613 23.109 7.936C23.109 9.124 23.797 10.129 24.526 11.311C25.073 12.269 25.708 13.504 25.708 15.28C25.708 16.499 25.239 17.936 24.614 19.921L23.182 24.697L17.984 9.218V9.24ZM16 30.38C14.589 30.38 13.224 30.177 11.937 29.797L16.25 17.255L20.672 29.37C20.703 29.443 20.74 29.505 20.776 29.568C19.2416 30.1077 17.6266 30.3827 16 30.381V30.38ZM1.615 16C1.615 13.917 2.063 11.932 2.86 10.146L9.719 28.948C4.927 26.615 1.615 21.693 1.615 16ZM16 0C7.182 0 0 7.182 0 16C0 24.818 7.182 32 16 32C24.818 32 32 24.818 32 16C32 7.182 24.818 0 16 0Z" fill="black"/>
</svg>
